<svg width="452" height="96" viewBox="0 0 452 96" fill="none" xmlns="http://www.w3.org/2000/svg">
<path d="M433.353 71.2516C429.729 71.2516 426.505 70.4931 423.682 68.9761C420.901 67.459 418.688 65.3942 417.045 62.7815C415.444 60.1267 414.643 57.1137 414.643 53.7425C414.643 50.3292 415.444 47.3162 417.045 44.7036C418.688 42.0488 420.901 39.9839 423.682 38.509C426.505 36.992 429.729 36.2335 433.353 36.2335C436.935 36.2335 440.138 36.992 442.961 38.509C445.784 39.9839 447.997 42.0277 449.598 44.6404C451.199 47.253 452 50.2871 452 53.7425C452 57.1137 451.199 60.1267 449.598 62.7815C447.997 65.3942 445.784 67.459 442.961 68.9761C440.138 70.4931 436.935 71.2516 433.353 71.2516ZM433.353 63.1608C434.997 63.1608 436.471 62.7815 437.778 62.023C439.084 61.2645 440.117 60.1899 440.875 58.7993C441.634 57.3666 442.013 55.681 442.013 53.7425C442.013 51.762 441.634 50.0764 440.875 48.6858C440.117 47.2952 439.084 46.2206 437.778 45.4621C436.471 44.7036 434.997 44.3243 433.353 44.3243C431.71 44.3243 430.235 44.7036 428.928 45.4621C427.622 46.2206 426.569 47.2952 425.768 48.6858C425.009 50.0764 424.63 51.762 424.63 53.7425C424.63 55.681 425.009 57.3666 425.768 58.7993C426.569 60.1899 427.622 61.2645 428.928 62.023C430.235 62.7815 431.71 63.1608 433.353 63.1608Z" fill="#4573A2"/>
<path d="M389.904 71.2516C386.702 71.2516 383.815 70.5352 381.245 69.1025C378.674 67.6276 376.63 65.5838 375.113 62.9712C373.638 60.3585 372.901 57.2823 372.901 53.7426C372.901 50.1607 373.638 47.0634 375.113 44.4508C376.63 41.8381 378.674 39.8154 381.245 38.3826C383.815 36.9499 386.702 36.2335 389.904 36.2335C392.77 36.2335 395.277 36.8656 397.426 38.1298C399.575 39.394 401.24 41.3113 402.42 43.8819C403.6 46.4524 404.19 49.7393 404.19 53.7426C404.19 57.7037 403.621 60.9906 402.483 63.6033C401.345 66.1738 399.702 68.0911 397.553 69.3553C395.446 70.6195 392.896 71.2516 389.904 71.2516ZM391.611 63.1608C393.212 63.1608 394.666 62.7815 395.972 62.023C397.279 61.2645 398.311 60.1899 399.07 58.7993C399.87 57.3666 400.271 55.681 400.271 53.7426C400.271 51.762 399.87 50.0764 399.07 48.6858C398.311 47.2952 397.279 46.2206 395.972 45.4621C394.666 44.7036 393.212 44.3243 391.611 44.3243C389.967 44.3243 388.493 44.7036 387.186 45.4621C385.88 46.2206 384.826 47.2952 384.026 48.6858C383.267 50.0764 382.888 51.762 382.888 53.7426C382.888 55.681 383.267 57.3666 384.026 58.7993C384.826 60.1899 385.88 61.2645 387.186 62.023C388.493 62.7815 389.967 63.1608 391.611 63.1608ZM400.523 70.7459V63.7929L400.713 53.6794L400.081 43.629V23.8444H409.942V70.7459H400.523Z" fill="#4573A2"/>
<path d="M353.918 36.2335C356.615 36.2335 359.017 36.7813 361.124 37.8769C363.273 38.9304 364.959 40.5739 366.181 42.8073C367.403 44.9986 368.014 47.8219 368.014 51.2774V70.7459H358.153V52.7944C358.153 50.0553 357.542 48.0326 356.32 46.7263C355.14 45.42 353.455 44.7668 351.263 44.7668C349.704 44.7668 348.292 45.1039 347.028 45.7781C345.806 46.4102 344.837 47.4005 344.121 48.749C343.446 50.0975 343.109 51.8252 343.109 53.9322V70.7459H333.249V36.7392H342.667V46.1574L340.897 43.313C342.119 41.0374 343.868 39.2886 346.143 38.0666C348.419 36.8445 351.01 36.2335 353.918 36.2335Z" fill="#4573A2"/>
<path d="M309.907 71.2516C306.283 71.2516 303.059 70.4931 300.236 68.9761C297.455 67.459 295.242 65.3942 293.599 62.7815C291.997 60.1267 291.197 57.1137 291.197 53.7425C291.197 50.3292 291.997 47.3162 293.599 44.7036C295.242 42.0488 297.455 39.9839 300.236 38.509C303.059 36.992 306.283 36.2335 309.907 36.2335C313.489 36.2335 316.691 36.992 319.515 38.509C322.338 39.9839 324.55 42.0277 326.152 44.6404C327.753 47.253 328.554 50.2871 328.554 53.7425C328.554 57.1137 327.753 60.1267 326.152 62.7815C324.55 65.3942 322.338 67.459 319.515 68.9761C316.691 70.4931 313.489 71.2516 309.907 71.2516ZM309.907 63.1608C311.55 63.1608 313.025 62.7815 314.332 62.023C315.638 61.2645 316.67 60.1899 317.429 58.7993C318.187 57.3666 318.567 55.681 318.567 53.7425C318.567 51.762 318.187 50.0764 317.429 48.6858C316.67 47.2952 315.638 46.2206 314.332 45.4621C313.025 44.7036 311.55 44.3243 309.907 44.3243C308.263 44.3243 306.788 44.7036 305.482 45.4621C304.176 46.2206 303.122 47.2952 302.322 48.6858C301.563 50.0764 301.184 51.762 301.184 53.7425C301.184 55.681 301.563 57.3666 302.322 58.7993C303.122 60.1899 304.176 61.2645 305.482 62.023C306.788 62.7815 308.263 63.1608 309.907 63.1608Z" fill="#4573A2"/>
<path d="M272.63 36.2335C275.327 36.2335 277.708 36.7813 279.773 37.8769C281.88 38.9304 283.523 40.5739 284.703 42.8073C285.925 44.9986 286.536 47.8219 286.536 51.2774V70.7459H276.675V52.7944C276.675 50.0553 276.107 48.0326 274.969 46.7263C273.831 45.42 272.23 44.7668 270.165 44.7668C268.732 44.7668 267.447 45.1039 266.309 45.7781C265.171 46.4102 264.286 47.3794 263.654 48.6858C263.022 49.9921 262.706 51.6566 262.706 53.6793V70.7459H252.845V52.7944C252.845 50.0553 252.277 48.0326 251.139 46.7263C250.043 45.42 248.463 44.7668 246.398 44.7668C244.965 44.7668 243.68 45.1039 242.542 45.7781C241.404 46.4102 240.52 47.3794 239.887 48.6858C239.255 49.9921 238.939 51.6566 238.939 53.6793V70.7459H229.079V36.7392H238.497V46.031L236.727 43.313C237.907 40.9953 239.571 39.2465 241.721 38.0666C243.912 36.8445 246.398 36.2335 249.179 36.2335C252.298 36.2335 255.016 37.0341 257.333 38.6355C259.693 40.1946 261.252 42.5966 262.011 45.8413L258.534 44.8932C259.672 42.2384 261.484 40.1314 263.97 38.5722C266.499 37.0131 269.385 36.2335 272.63 36.2335Z" fill="#0D1B3E"/>
<path d="M211.963 70.7459V36.7392H221.823V70.7459H211.963ZM216.893 31.9984C215.081 31.9984 213.606 31.4717 212.468 30.4182C211.331 29.3647 210.762 28.0584 210.762 26.4992C210.762 24.94 211.331 23.6337 212.468 22.5802C213.606 21.5267 215.081 21 216.893 21C218.705 21 220.18 21.5056 221.318 22.517C222.455 23.4862 223.024 24.7504 223.024 26.3096C223.024 27.953 222.455 29.3226 221.318 30.4182C220.222 31.4717 218.747 31.9984 216.893 31.9984Z" fill="#0D1B3E"/>
<path d="M195.706 70.7459V64.1089L195.074 62.6551V50.7717C195.074 48.6647 194.421 47.0213 193.114 45.8413C191.85 44.6614 189.891 44.0715 187.236 44.0715C185.424 44.0715 183.633 44.3665 181.863 44.9564C180.135 45.5042 178.66 46.2627 177.438 47.232L173.898 40.3421C175.753 39.0358 177.986 38.0244 180.599 37.3081C183.211 36.5917 185.866 36.2335 188.563 36.2335C193.746 36.2335 197.771 37.4555 200.636 39.8996C203.502 42.3438 204.934 46.1574 204.934 51.3406V70.7459H195.706ZM185.339 71.2516C182.685 71.2516 180.409 70.8091 178.513 69.9242C176.616 68.9971 175.163 67.754 174.151 66.1948C173.14 64.6357 172.634 62.8869 172.634 60.9484C172.634 58.9257 173.119 57.1559 174.088 55.6388C175.099 54.1218 176.68 52.9419 178.829 52.0991C180.978 51.2142 183.78 50.7717 187.236 50.7717H196.275V56.5238H188.31C185.993 56.5238 184.391 56.903 183.506 57.6615C182.664 58.4201 182.242 59.3682 182.242 60.506C182.242 61.7702 182.727 62.7815 183.696 63.54C184.707 64.2564 186.077 64.6146 187.805 64.6146C189.448 64.6146 190.923 64.2353 192.229 63.4768C193.536 62.6762 194.484 61.5173 195.074 60.0003L196.591 64.5514C195.874 66.7427 194.568 68.4072 192.672 69.545C190.775 70.6827 188.331 71.2516 185.339 71.2516Z" fill="#0D1B3E"/>
<path d="M157.731 70.7459V23.8444H167.592V70.7459H157.731Z" fill="#0D1B3E"/>
<path d="M138.963 71.2516C135.297 71.2516 132.031 70.5142 129.165 69.0393C126.3 67.5222 124.045 65.4363 122.402 62.7815C120.801 60.1267 120 57.1137 120 53.7425C120 50.3292 120.801 47.3162 122.402 44.7036C124.045 42.0488 126.3 39.9839 129.165 38.509C132.031 36.992 135.297 36.2335 138.963 36.2335C142.545 36.2335 145.663 36.992 148.318 38.509C150.973 39.9839 152.932 42.112 154.196 44.8932L146.548 49.0018C145.663 47.4005 144.546 46.2206 143.198 45.4621C141.892 44.7036 140.459 44.3243 138.9 44.3243C137.214 44.3243 135.697 44.7036 134.349 45.4621C133 46.2206 131.926 47.2952 131.125 48.6858C130.366 50.0764 129.987 51.762 129.987 53.7425C129.987 55.7231 130.366 57.4087 131.125 58.7993C131.926 60.1899 133 61.2645 134.349 62.023C135.697 62.7815 137.214 63.1608 138.9 63.1608C140.459 63.1608 141.892 62.8026 143.198 62.0862C144.546 61.3277 145.663 60.1267 146.548 58.4833L154.196 62.6551C152.932 65.3942 150.973 67.5222 148.318 69.0393C145.663 70.5142 142.545 71.2516 138.963 71.2516Z" fill="#0D1B3E"/>
<rect width="96" height="96" rx="24" fill="#0F172A"/>
<path d="M62.0364 35.3594L47.9994 30.0966L33.9646 35.3594V48.0007C33.9649 56.6886 39.8598 62.9973 47.9994 65.9197C56.1397 62.9975 62.036 56.6891 62.0364 48.0007V35.3594ZM65.9632 48.0007C65.9629 59.092 58.1613 66.6837 48.6216 69.8636C48.2187 69.9979 47.7823 69.9979 47.3794 69.8636C37.8396 66.6837 30.036 59.0921 30.0356 48.0007V34C30.0356 33.1817 30.5438 32.4488 31.3098 32.1612L47.3112 26.1612L47.6521 26.0675C47.998 26.0052 48.3567 26.0363 48.6898 26.1612L64.6891 32.1612C65.4555 32.4486 65.9632 33.1815 65.9632 34V48.0007Z" fill="white"/>
<path d="M53.5411 41.6854C54.2667 40.8802 55.5074 40.8155 56.3132 41.5405C57.1192 42.266 57.1857 43.5085 56.4602 44.3146L47.4602 54.3139C47.0998 54.7143 46.5902 54.9496 46.0518 54.9638C45.5133 54.9779 44.9924 54.7694 44.6114 54.3885L39.6107 49.3878C38.8447 48.621 38.8445 47.3782 39.6107 46.6115C40.3776 45.8447 41.6223 45.8447 42.3891 46.6115L45.9239 50.1484L53.5411 41.6854Z" fill="white"/>
</svg>
