<svg width="44" height="44" viewBox="0 0 44 44" fill="none" xmlns="http://www.w3.org/2000/svg">
<rect width="44" height="44" rx="10" fill="#0F172A"/>
<path d="M28.4331 16.2064L21.9995 13.7943L15.5669 16.2064V22.0003C15.567 25.9823 18.2689 28.8737 21.9995 30.2132C25.7305 28.8738 28.433 25.9825 28.4331 22.0003V16.2064ZM30.2329 22.0003C30.2328 27.0838 26.657 30.5633 22.2847 32.0208C22.1 32.0824 21.9 32.0823 21.7153 32.0208C17.3429 30.5634 13.7663 27.0839 13.7661 22.0003V15.5833C13.7661 15.2083 13.999 14.8724 14.3501 14.7406L21.6841 11.9906L21.8403 11.9476C21.9988 11.919 22.1633 11.9333 22.3159 11.9906L29.6489 14.7406C30.0002 14.8723 30.2329 15.2082 30.2329 15.5833V22.0003Z" fill="white"/>
<path d="M24.5397 19.1058C24.8723 18.7368 25.4409 18.7071 25.8102 19.0394C26.1797 19.3719 26.2101 19.9414 25.8776 20.3109L21.7526 24.8939C21.5875 25.0774 21.3539 25.1852 21.1071 25.1917C20.8603 25.1982 20.6215 25.1026 20.447 24.928L18.155 22.6361C17.8039 22.2846 17.8038 21.715 18.155 21.3636C18.5064 21.0121 19.0769 21.0121 19.4284 21.3636L21.0485 22.9847L24.5397 19.1058Z" fill="white"/>
</svg>
