<svg width="500" height="76" viewBox="0 0 500 76" fill="none" xmlns="http://www.w3.org/2000/svg">
<path d="M471.918 75.6802C466.46 75.6802 461.605 74.5378 457.353 72.2531C453.164 69.9684 449.832 66.8587 447.357 62.924C444.946 58.9258 443.74 54.3882 443.74 49.3111C443.74 44.1705 444.946 39.6329 447.357 35.6982C449.832 31.7 453.164 28.5903 457.353 26.369C461.605 24.0844 466.46 22.942 471.918 22.942C477.312 22.942 482.135 24.0844 486.387 26.369C490.639 28.5903 493.971 31.6682 496.383 35.603C498.794 39.5377 500 44.1071 500 49.3111C500 54.3882 498.794 58.9258 496.383 62.924C493.971 66.8587 490.639 69.9684 486.387 72.2531C482.135 74.5378 477.312 75.6802 471.918 75.6802ZM471.918 63.4952C474.393 63.4952 476.614 62.924 478.581 61.7817C480.549 60.6393 482.103 59.021 483.246 56.9267C484.388 54.7689 484.959 52.2304 484.959 49.3111C484.959 46.3283 484.388 43.7898 483.246 41.6955C482.103 39.6012 480.549 37.9829 478.581 36.8405C476.614 35.6982 474.393 35.127 471.918 35.127C469.442 35.127 467.221 35.6982 465.254 36.8405C463.287 37.9829 461.7 39.6012 460.494 41.6955C459.352 43.7898 458.781 46.3283 458.781 49.3111C458.781 52.2304 459.352 54.7689 460.494 56.9267C461.7 59.021 463.287 60.6393 465.254 61.7817C467.221 62.924 469.442 63.4952 471.918 63.4952Z" fill="#4573A2"/>
<path d="M406.483 75.6802C401.659 75.6802 397.312 74.6013 393.441 72.4436C389.569 70.2223 386.492 67.1444 384.207 63.2096C381.986 59.2749 380.875 54.6421 380.875 49.3111C380.875 43.9167 381.986 39.2522 384.207 35.3174C386.492 31.3827 389.569 28.3365 393.441 26.1787C397.312 24.021 401.659 22.9421 406.483 22.9421C410.798 22.9421 414.574 23.894 417.811 25.7979C421.047 27.7018 423.554 30.5894 425.331 34.4607C427.108 38.332 427.997 43.2821 427.997 49.3111C427.997 55.2767 427.14 60.2269 425.426 64.1616C423.713 68.0329 421.238 70.9204 418.001 72.8244C414.828 74.7283 410.988 75.6802 406.483 75.6802ZM409.053 63.4952C411.464 63.4952 413.654 62.9241 415.621 61.7817C417.589 60.6394 419.143 59.0211 420.286 56.9268C421.492 54.769 422.095 52.2305 422.095 49.3111C422.095 46.3284 421.492 43.7898 420.286 41.6955C419.143 39.6012 417.589 37.9829 415.621 36.8406C413.654 35.6982 411.464 35.1271 409.053 35.1271C406.578 35.1271 404.356 35.6982 402.389 36.8406C400.422 37.9829 398.835 39.6012 397.629 41.6955C396.487 43.7898 395.916 46.3284 395.916 49.3111C395.916 52.2305 396.487 54.769 397.629 56.9268C398.835 59.0211 400.422 60.6394 402.389 61.7817C404.356 62.9241 406.578 63.4952 409.053 63.4952ZM422.475 74.9186V64.4472L422.761 49.2159L421.809 34.0799V4.28381H436.659V74.9186H422.475Z" fill="#4573A2"/>
<path d="M352.287 22.942C356.348 22.942 359.966 23.767 363.139 25.4171C366.375 27.0037 368.914 29.4788 370.754 32.8423C372.595 36.1424 373.515 40.3945 373.515 45.5985V74.9186H358.665V47.8832C358.665 43.758 357.744 40.7118 355.904 38.7444C354.127 36.777 351.588 35.7934 348.288 35.7934C345.94 35.7934 343.814 36.3011 341.91 37.3165C340.07 38.2684 338.61 39.7598 337.531 41.7907C336.516 43.8215 336.008 46.4235 336.008 49.5967V74.9186H321.158V23.7036H335.342V37.8877L332.676 33.6039C334.517 30.1768 337.151 27.5431 340.578 25.7027C344.005 23.8622 347.908 22.942 352.287 22.942Z" fill="#4573A2"/>
<path d="M286.004 75.6802C280.547 75.6802 275.692 74.5378 271.44 72.2531C267.251 69.9684 263.919 66.8587 261.444 62.924C259.032 58.9258 257.827 54.3882 257.827 49.3111C257.827 44.1705 259.032 39.6329 261.444 35.6982C263.919 31.7 267.251 28.5903 271.44 26.369C275.692 24.0844 280.547 22.942 286.004 22.942C291.399 22.942 296.222 24.0844 300.474 26.369C304.726 28.5903 308.058 31.6682 310.47 35.603C312.881 39.5377 314.087 44.1071 314.087 49.3111C314.087 54.3882 312.881 58.9258 310.47 62.924C308.058 66.8587 304.726 69.9684 300.474 72.2531C296.222 74.5378 291.399 75.6802 286.004 75.6802ZM286.004 63.4952C288.48 63.4952 290.701 62.924 292.668 61.7817C294.635 60.6393 296.19 59.021 297.333 56.9267C298.475 54.7689 299.046 52.2304 299.046 49.3111C299.046 46.3283 298.475 43.7898 297.333 41.6955C296.19 39.6012 294.635 37.9829 292.668 36.8405C290.701 35.6982 288.48 35.127 286.004 35.127C283.529 35.127 281.308 35.6982 279.341 36.8405C277.373 37.9829 275.787 39.6012 274.581 41.6955C273.439 43.7898 272.868 46.3283 272.868 49.3111C272.868 52.2304 273.439 54.7689 274.581 56.9267C275.787 59.021 277.373 60.6393 279.341 61.7817C281.308 62.924 283.529 63.4952 286.004 63.4952Z" fill="#4573A2"/>
<path d="M229.864 22.942C233.926 22.942 237.512 23.767 240.621 25.4171C243.795 27.0037 246.27 29.4788 248.047 32.8423C249.887 36.1424 250.807 40.3945 250.807 45.5985V74.9186H235.957V47.8832C235.957 43.758 235.1 40.7118 233.387 38.7444C231.673 36.777 229.261 35.7934 226.152 35.7934C223.994 35.7934 222.058 36.3011 220.345 37.3165C218.631 38.2684 217.299 39.7281 216.347 41.6955C215.395 43.6628 214.919 46.1696 214.919 49.2159V74.9186H200.068V47.8832C200.068 43.758 199.212 40.7118 197.498 38.7444C195.848 36.777 193.468 35.7934 190.358 35.7934C188.201 35.7934 186.265 36.3011 184.551 37.3165C182.838 38.2684 181.505 39.7281 180.553 41.6955C179.601 43.6628 179.125 46.1696 179.125 49.2159V74.9186H164.275V23.7036H178.459V37.6973L175.794 33.6039C177.57 30.1134 180.077 27.4797 183.314 25.7027C186.614 23.8622 190.358 22.942 194.547 22.942C199.243 22.942 203.337 24.1478 206.827 26.5594C210.381 28.9076 212.729 32.525 213.872 37.4117L208.636 35.9838C210.349 31.9856 213.078 28.8124 216.823 26.4642C220.63 24.1161 224.978 22.942 229.864 22.942Z" fill="#0D1B3E"/>
<path d="M138.498 74.9186V23.7036H153.349V74.9186H138.498ZM145.923 16.564C143.194 16.564 140.973 15.7707 139.26 14.1841C137.546 12.5975 136.689 10.6301 136.689 8.28198C136.689 5.93383 137.546 3.96647 139.26 2.37988C140.973 0.793294 143.194 0 145.923 0C148.652 0 150.874 0.761563 152.587 2.28469C154.301 3.74435 155.157 5.64825 155.157 7.9964C155.157 10.4715 154.301 12.534 152.587 14.1841C150.937 15.7707 148.716 16.564 145.923 16.564Z" fill="#0D1B3E"/>
<path d="M114.015 74.9186V64.9231L113.063 62.7336V44.8369C113.063 41.6637 112.079 39.1887 110.112 37.4117C108.208 35.6347 105.257 34.7462 101.259 34.7462C98.5297 34.7462 95.8325 35.1905 93.1671 36.079C90.565 36.904 88.3438 38.0463 86.5034 39.506L81.1725 29.1297C83.9648 27.1623 87.3284 25.6392 91.2631 24.5603C95.1979 23.4815 99.1961 22.942 103.258 22.942C111.064 22.942 117.125 24.7825 121.44 28.4633C125.756 32.1442 127.913 37.8877 127.913 45.6937V74.9186H114.015ZM98.4028 75.6802C94.4046 75.6802 90.9776 75.0138 88.1217 73.6811C85.2659 72.2849 83.0764 70.4127 81.5532 68.0645C80.0301 65.7164 79.2686 63.0827 79.2686 60.1633C79.2686 57.1171 79.9984 54.4516 81.458 52.1669C82.9812 49.8823 85.361 48.1053 88.5977 46.836C91.8343 45.5033 96.0546 44.8369 101.259 44.8369H114.872V53.4997H102.877C99.3865 53.4997 96.9749 54.0708 95.6421 55.2132C94.3729 56.3555 93.7382 57.7835 93.7382 59.497C93.7382 61.4009 94.468 62.924 95.9277 64.0663C97.4508 65.1452 99.5134 65.6847 102.115 65.6847C104.59 65.6847 106.812 65.1135 108.779 63.9711C110.746 62.7653 112.174 61.0201 113.063 58.7354L115.348 65.5895C114.269 68.8896 112.301 71.3964 109.445 73.1099C106.59 74.8234 102.909 75.6802 98.4028 75.6802Z" fill="#0D1B3E"/>
<path d="M56.8237 74.9186V4.28381H71.6742V74.9186H56.8237Z" fill="#0D1B3E"/>
<path d="M28.5586 75.6802C23.0372 75.6802 18.1188 74.5695 13.8033 72.3483C9.48779 70.0636 6.09249 66.9222 3.61742 62.924C1.20581 58.9258 0 54.3882 0 49.3111C0 44.1705 1.20581 39.6329 3.61742 35.6982C6.09249 31.7 9.48779 28.5903 13.8033 26.369C18.1188 24.0844 23.0372 22.942 28.5586 22.942C33.953 22.942 38.6493 24.0844 42.6475 26.369C46.6457 28.5903 49.5967 31.7952 51.5006 35.9838L39.982 42.1714C38.6493 39.7598 36.9675 37.9829 34.9366 36.8405C32.9693 35.6982 30.8115 35.127 28.4634 35.127C25.9248 35.127 23.6401 35.6982 21.6093 36.8405C19.5785 37.9829 17.9602 39.6012 16.7544 41.6955C15.612 43.7898 15.0408 46.3283 15.0408 49.3111C15.0408 52.2939 15.612 54.8324 16.7544 56.9267C17.9602 59.021 19.5785 60.6393 21.6093 61.7817C23.6401 62.924 25.9248 63.4952 28.4634 63.4952C30.8115 63.4952 32.9693 62.9557 34.9366 61.8769C36.9675 60.7345 38.6493 58.9258 39.982 56.4507L51.5006 62.7336C49.5967 66.8587 46.6457 70.0636 42.6475 72.3483C38.6493 74.5695 33.953 75.6802 28.5586 75.6802Z" fill="#0D1B3E"/>
</svg>
