<svg width="96" height="96" viewBox="0 0 96 96" fill="none" xmlns="http://www.w3.org/2000/svg">
  <rect width="96" height="96" rx="24" fill="#0D1B3E"/>
  <path d="M62.0364 35.3594L47.9994 30.0966L33.9646 35.3594V48.0007C33.9649 56.6886 39.8598 62.9973 47.9994 65.9197C56.1397 62.9975 62.036 56.6891 62.0364 48.0007V35.3594ZM65.9632 48.0007C65.9629 59.092 58.1613 66.6837 48.6216 69.8636C48.2187 69.9979 47.7823 69.9979 47.3794 69.8636C37.8396 66.6837 30.036 59.0921 30.0356 48.0007V34C30.0356 33.1817 30.5438 32.4488 31.3098 32.1612L47.3112 26.1612L47.6521 26.0675C47.998 26.0052 48.3567 26.0363 48.6898 26.1612L64.6891 32.1612C65.4555 32.4486 65.9632 33.1815 65.9632 34V48.0007Z" fill="white"/>
  <path d="M53.5411 41.6854C54.2667 40.8802 55.5074 40.8155 56.3132 41.5405C57.1192 42.266 57.1857 43.5085 56.4602 44.3146L47.4602 54.3139C47.0998 54.7143 46.5902 54.9496 46.0518 54.9638C45.5133 54.9779 44.9924 54.7694 44.6114 54.3885L39.6107 49.3878C38.8447 48.621 38.8445 47.3782 39.6107 46.6115C40.3776 45.8447 41.6223 45.8447 42.3891 46.6115L45.9239 50.1484L53.5411 41.6854Z" fill="white"/>
</svg>
